<?xml version="1.0" standalone="no"?><!DOCTYPE svg PUBLIC "-//W3C//DTD SVG 1.1//EN" "http://www.w3.org/Graphics/SVG/1.1/DTD/svg11.dtd"><svg t="1684895821707" class="icon" viewBox="0 0 1024 1024" version="1.1" xmlns="http://www.w3.org/2000/svg" p-id="31941" xmlns:xlink="http://www.w3.org/1999/xlink" width="200" height="200"><path d="M813.423 518.507a16 16 0 0 1 1.577 6.927V746.14c0 49.662-28.725 94.841-73.696 115.91C664.536 898.017 587.768 916 511 916s-153.536-17.983-230.304-53.95C235.726 840.983 207 795.804 207 746.142V525.434c0-8.837 7.163-16 16-16a16 16 0 0 1 6.927 1.577L459.049 621.05a120 120 0 0 0 103.902 0l229.122-110.04c7.966-3.825 17.524-0.469 21.35 7.497zM892 465.5c17.95 0 32.5 14.55 32.5 32.5v96c0 17.95-14.55 32.5-32.5 32.5s-32.5-14.55-32.5-32.5v-96c0-17.95 14.55-32.5 32.5-32.5zM578.533 121.25l347.005 163.372c29.99 14.119 42.851 49.867 28.727 79.846a60.011 60.011 0 0 1-28.695 28.701L578.617 556.76a160.112 160.112 0 0 1-137.104-0.256L98.228 393.073c-29.929-14.248-42.636-50.052-28.382-79.97a60.011 60.011 0 0 1 28.413-28.386l343.337-163.211a160.112 160.112 0 0 1 136.937-0.255z" fill="#6495ED" p-id="31942"></path></svg>